{
  "accessors": [
    {
      "bufferView": 2,
      "componentType": 5126,
      "count": 65532,
      "max": [
        -0.11715493351221085,
        -4.1485276222229,
        1.7135343551635742
      ],
      "min": [
        -5.754243850708008,
        -9.494964599609375,
        -1.7135378122329712
      ],
      "type": "VEC3"
    },
    {
      "bufferView": 2,
      "byteOffset": 786384,
      "componentType": 5126,
      "count": 65532,
      "max": [
        0.9995577335357666,
        0.9919013381004333,
        0.9998988509178162
      ],
      "min": [
        -0.9995579123497009,
        -0.997948944568634,
        -0.9998988509178162
      ],
      "type": "VEC3"
    },
    {
      "bufferView": 1,
      "componentType": 5126,
      "count": 65532,
      "max": [
        0.9999198913574219,
        0.5217841267585754
      ],
      "min": [
        0.37495896220207214,
        0.12333120405673981
      ],
      "type": "VEC2"
    },
    {
      "bufferView": 0,
      "componentType": 5125,
      "count": 98298,
      "type": "SCALAR"
    },
    {
      "bufferView": 2,
      "byteOffset": 1572768,
      "componentType": 5126,
      "count": 65532,
      "max": [
        -0.29503217339515686,
        -7.191208362579346,
        1.2690091133117676
      ],
      "min": [
        -5.1900224685668945,
        -8.84764575958252,
        -1.2690150737762451
      ],
      "type": "VEC3"
    },
    {
      "bufferView": 2,
      "byteOffset": 2359152,
      "componentType": 5126,
      "count": 65532,
      "max": [
        0.7159977555274963,
        0.9999831318855286,
        0.9998456239700317
      ],
      "min": [
        -0.8423514366149902,
        -0.999987006187439,
        -0.999845564365387
      ],
      "type": "VEC3"
    },
    {
      "bufferView": 1,
      "byteOffset": 524256,
      "componentType": 5126,
      "count": 65532,
      "max": [
        0.9358025789260864,
        0.4676304757595062
      ],
      "min": [
        0.7395210266113281,
        0.1774844229221344
      ],
      "type": "VEC2"
    },
    {
      "bufferView": 0,
      "byteOffset": 393192,
      "componentType": 5125,
      "count": 98298,
      "type": "SCALAR"
    },
    {
      "bufferView": 2,
      "byteOffset": 3145536,
      "componentType": 5126,
      "count": 65532,
      "max": [
        7.992888450622559,
        -3.757535219192505,
        3.6527469158172607
      ],
      "min": [
        -11.354631423950195,
        -8.910510063171387,
        -3.6527481079101563
      ],
      "type": "VEC3"
    },
    {
      "bufferView": 2,
      "byteOffset": 3931920,
      "componentType": 5126,
      "count": 65532,
      "max": [
        0.9729753136634827,
        0.9999771118164063,
        0.9999202489852905
      ],
      "min": [
        -0.9729211926460266,
        -0.9999825954437256,
        -0.9999243021011353
      ],
      "type": "VEC3"
    },
    {
      "bufferView": 1,
      "byteOffset": 1048512,
      "componentType": 5126,
      "count": 65532,
      "max": [
        0.7626134753227234,
        0.6439245939254761
      ],
      "min": [
        0.08313816040754318,
        0.0011895312927663326
      ],
      "type": "VEC2"
    },
    {
      "bufferView": 0,
      "byteOffset": 786384,
      "componentType": 5125,
      "count": 98298,
      "type": "SCALAR"
    },
    {
      "bufferView": 2,
      "byteOffset": 4718304,
      "componentType": 5126,
      "count": 65532,
      "max": [
        8.679078102111816,
        0.348995566368103,
        3.7715113162994385
      ],
      "min": [
        -1.8365933895111084,
        -4.755626201629639,
        -3.7715113162994385
      ],
      "type": "VEC3"
    },
    {
      "bufferView": 2,
      "byteOffset": 5504688,
      "componentType": 5126,
      "count": 65532,
      "max": [
        0.9989136457443237,
        0.9999290108680725,
        0.9999448657035828
      ],
      "min": [
        -0.9997987747192383,
        -0.8293284773826599,
        -0.999944806098938
      ],
      "type": "VEC3"
    },
    {
      "bufferView": 1,
      "byteOffset": 1572768,
      "componentType": 5126,
      "count": 65532,
      "max": [
        0.26609593629837036,
        0.6439245939254761
      ],
      "min": [
        0.014824890531599522,
        0.00565726263448596
      ],
      "type": "VEC2"
    },
    {
      "bufferView": 0,
      "byteOffset": 1179576,
      "componentType": 5125,
      "count": 98298,
      "type": "SCALAR"
    },
    {
      "bufferView": 2,
      "byteOffset": 6291072,
      "componentType": 5126,
      "count": 65532,
      "max": [
        6.891656398773193,
        1.0435447692871094,
        3.5738840103149414
      ],
      "min": [
        -3.3258166313171387,
        -5.962807655334473,
        -3.573885440826416
      ],
      "type": "VEC3"
    },
    {
      "bufferView": 2,
      "byteOffset": 7077456,
      "componentType": 5126,
      "count": 65532,
      "max": [
        0.9692140817642212,
        0.9999949932098389,
        0.999944269657135
      ],
      "min": [
        -0.9891408681869507,
        -0.9465868473052979,
        -0.9999424815177917
      ],
      "type": "VEC3"
    },
    {
      "bufferView": 1,
      "byteOffset": 2097024,
      "componentType": 5126,
      "count": 65532,
      "max": [
        0.34705257415771484,
        0.6053558588027954
      ],
      "min": [
        0.00010940518404822797,
        0.0011895312927663326
      ],
      "type": "VEC2"
    },
    {
      "bufferView": 0,
      "byteOffset": 1572768,
      "componentType": 5125,
      "count": 98298,
      "type": "SCALAR"
    },
    {
      "bufferView": 2,
      "byteOffset": 7863840,
      "componentType": 5126,
      "count": 65532,
      "max": [
        5.8729777336120605,
        -4.010356426239014,
        2.7540788650512695
      ],
      "min": [
        -8.6378173828125,
        -6.720752239227295,
        -2.7540814876556396
      ],
      "type": "VEC3"
    },
    {
      "bufferView": 2,
      "byteOffset": 8650224,
      "componentType": 5126,
      "count": 65532,
      "max": [
        0.42802417278289795,
        0.9999951124191284,
        0.9999451637268066
      ],
      "min": [
        -0.39665013551712036,
        -0.9999575614929199,
        -0.9999451041221619
      ],
      "type": "VEC3"
    },
    {
      "bufferView": 1,
      "byteOffset": 2621280,
      "componentType": 5126,
      "count": 65532,
      "max": [
        0.5455915927886963,
        0.6398898959159851
      ],
      "min": [
        0.14997559785842896,
        0.019649112597107887
      ],
      "type": "VEC2"
    },
    {
      "bufferView": 0,
      "byteOffset": 1965960,
      "componentType": 5125,
      "count": 98298,
      "type": "SCALAR"
    },
    {
      "bufferView": 2,
      "byteOffset": 9436608,
      "componentType": 5126,
      "count": 49176,
      "max": [
        -7.376222133636475,
        -4.01804780960083,
        1.5020756721496582
      ],
      "min": [
        -11.394109725952148,
        -7.307358741760254,
        -1.5020794868469238
      ],
      "type": "VEC3"
    },
    {
      "bufferView": 2,
      "byteOffset": 10026720,
      "componentType": 5126,
      "count": 49176,
      "max": [
        0.9999387264251709,
        0.9986604452133179,
        0.9999243021011353
      ],
      "min": [
        -0.9999384880065918,
        -0.9993526935577393,
        -0.9999116063117981
      ],
      "type": "VEC3"
    },
    {
      "bufferView": 1,
      "byteOffset": 3145536,
      "componentType": 5126,
      "count": 49176,
      "max": [
        0.6093142032623291,
        0.4282899498939514
      ],
      "min": [
        0.4919123947620392,
        0.2297852486371994
      ],
      "type": "VEC2"
    },
    {
      "bufferView": 0,
      "byteOffset": 2359152,
      "componentType": 5125,
      "count": 73764,
      "type": "SCALAR"
    }
  ],
  "asset": {
    "extras": {
      "author": "Vikrama Raghuraman (https://sketchfab.com/vikrama1998)",
      "license": "CC-BY-4.0 (http://creativecommons.org/licenses/by/4.0/)",
      "source": "https://sketchfab.com/3d-models/stomach-f4ccc8dd0f124d2d9f1d8d4db676e217",
      "title": "Stomach"
    },
    "generator": "Sketchfab-12.67.0",
    "version": "2.0"
  },
  "bufferViews": [
    {
      "buffer": 0,
      "byteLength": 2654208,
      "name": "floatBufferViews",
      "target": 34963
    },
    {
      "buffer": 0,
      "byteLength": 3538944,
      "byteOffset": 2654208,
      "byteStride": 8,
      "name": "floatBufferViews",
      "target": 34962
    },
    {
      "buffer": 0,
      "byteLength": 10616832,
      "byteOffset": 6193152,
      "byteStride": 12,
      "name": "floatBufferViews",
      "target": 34962
    }
  ],
  "buffers": [
    {
      "byteLength": 16809984,
      "uri": "scene.bin"
    }
  ],
  "images": [
    {
      "uri": "textures/Material.001_baseColor.jpeg"
    }
  ],
  "materials": [
    {
      "doubleSided": true,
      "name": "Material.001",
      "pbrMetallicRoughness": {
        "baseColorTexture": {
          "index": 0
        },
        "metallicFactor": 0.0,
        "roughnessFactor": 0.5
      }
    }
  ],
  "meshes": [
    {
      "name": "Object_0",
      "primitives": [
        {
          "attributes": {
            "NORMAL": 1,
            "POSITION": 0,
            "TEXCOORD_0": 2
          },
          "indices": 3,
          "material": 0,
          "mode": 4
        }
      ]
    },
    {
      "name": "Object_1",
      "primitives": [
        {
          "attributes": {
            "NORMAL": 5,
            "POSITION": 4,
            "TEXCOORD_0": 6
          },
          "indices": 7,
          "material": 0,
          "mode": 4
        }
      ]
    },
    {
      "name": "Object_2",
      "primitives": [
        {
          "attributes": {
            "NORMAL": 9,
            "POSITION": 8,
            "TEXCOORD_0": 10
          },
          "indices": 11,
          "material": 0,
          "mode": 4
        }
      ]
    },
    {
      "name": "Object_3",
      "primitives": [
        {
          "attributes": {
            "NORMAL": 13,
            "POSITION": 12,
            "TEXCOORD_0": 14
          },
          "indices": 15,
          "material": 0,
          "mode": 4
        }
      ]
    },
    {
      "name": "Object_4",
      "primitives": [
        {
          "attributes": {
            "NORMAL": 17,
            "POSITION": 16,
            "TEXCOORD_0": 18
          },
          "indices": 19,
          "material": 0,
          "mode": 4
        }
      ]
    },
    {
      "name": "Object_5",
      "primitives": [
        {
          "attributes": {
            "NORMAL": 21,
            "POSITION": 20,
            "TEXCOORD_0": 22
          },
          "indices": 23,
          "material": 0,
          "mode": 4
        }
      ]
    },
    {
      "name": "Object_6",
      "primitives": [
        {
          "attributes": {
            "NORMAL": 25,
            "POSITION": 24,
            "TEXCOORD_0": 26
          },
          "indices": 27,
          "material": 0,
          "mode": 4
        }
      ]
    }
  ],
  "nodes": [
    {
      "children": [
        1
      ],
      "matrix": [
        1.0,
        0.0,
        0.0,
        0.0,
        0.0,
        2.220446049250313e-16,
        -1.0,
        0.0,
        0.0,
        1.0,
        2.220446049250313e-16,
        0.0,
        0.0,
        0.0,
        0.0,
        1.0
      ],
      "name": "Sketchfab_model"
    },
    {
      "children": [
        2
      ],
      "name": "root"
    },
    {
      "children": [
        3
      ],
      "matrix": [
        1.0,
        0.0,
        0.0,
        0.0,
        0.0,
        2.220446049250313e-16,
        1.0,
        0.0,
        0.0,
        -1.0,
        2.220446049250313e-16,
        0.0,
        0.0,
        0.0,
        0.0,
        1.0
      ],
      "name": "GLTF_SceneRootNode"
    },
    {
      "children": [
        4,
        5,
        6,
        7,
        8,
        9,
        10
      ],
      "matrix": [
        0.3995109796524048,
        0.0,
        0.0,
        0.0,
        0.0,
        1.0,
        0.0,
        0.0,
        0.0,
        0.0,
        0.4054153561592102,
        0.0,
        -0.04592311382293701,
        3.3753507137298584,
        0.0,
        1.0
      ],
      "name": "Cylinder_3"
    },
    {
      "mesh": 0,
      "name": "Object_4"
    },
    {
      "mesh": 1,
      "name": "Object_5"
    },
    {
      "mesh": 2,
      "name": "Object_6"
    },
    {
      "mesh": 3,
      "name": "Object_7"
    },
    {
      "mesh": 4,
      "name": "Object_8"
    },
    {
      "mesh": 5,
      "name": "Object_9"
    },
    {
      "mesh": 6,
      "name": "Object_10"
    }
  ],
  "samplers": [
    {
      "magFilter": 9729,
      "minFilter": 9987,
      "wrapS": 10497,
      "wrapT": 10497
    }
  ],
  "scene": 0,
  "scenes": [
    {
      "name": "Sketchfab_Scene",
      "nodes": [
        0
      ]
    }
  ],
  "textures": [
    {
      "sampler": 0,
      "source": 0
    }
  ]
}
