{
  "accessors": [
    {
      "bufferView": 2,
      "componentType": 5126,
      "count": 65532,
      "max": [
        203.0944366455078,
        231.414306640625,
        88.86184692382813
      ],
      "min": [
        -193.95257568359375,
        -233.22509765625,
        -98.16404724121094
      ],
      "type": "VEC3"
    },
    {
      "bufferView": 2,
      "byteOffset": 786384,
      "componentType": 5126,
      "count": 65532,
      "max": [
        0.9999850988388062,
        0.9999594688415527,
        0.9999803304672241
      ],
      "min": [
        -0.9999691247940063,
        -0.9999552965164185,
        -0.9999874830245972
      ],
      "type": "VEC3"
    },
    {
      "bufferView": 3,
      "componentType": 5126,
      "count": 65532,
      "max": [
        0.9998087882995605,
        0.9998809695243835,
        0.9991387128829956,
        1.0
      ],
      "min": [
        -0.9999972581863403,
        -0.999997615814209,
        -0.9996666312217712,
        1.0
      ],
      "type": "VEC4"
    },
    {
      "bufferView": 1,
      "componentType": 5126,
      "count": 65532,
      "max": [
        0.9886268973350525,
        0.9813823699951172
      ],
      "min": [
        0.01809430681169033,
        0.032727718353271484
      ],
      "type": "VEC2"
    },
    {
      "bufferView": 1,
      "byteOffset": 524256,
      "componentType": 5126,
      "count": 65532,
      "max": [
        0.9886268973350525,
        0.9813823699951172
      ],
      "min": [
        0.01809430681169033,
        0.032727718353271484
      ],
      "type": "VEC2"
    },
    {
      "bufferView": 0,
      "componentType": 5125,
      "count": 364938,
      "type": "SCALAR"
    },
    {
      "bufferView": 2,
      "byteOffset": 1572768,
      "componentType": 5126,
      "count": 43868,
      "max": [
        198.8153839111328,
        231.47702026367188,
        103.4861831665039
      ],
      "min": [
        -205.6049041748047,
        -225.86582946777344,
        -91.08837890625
      ],
      "type": "VEC3"
    },
    {
      "bufferView": 2,
      "byteOffset": 2099184,
      "componentType": 5126,
      "count": 43868,
      "max": [
        0.9999792575836182,
        0.9999760389328003,
        0.9999324083328247
      ],
      "min": [
        -0.9999287128448486,
        -0.9999840259552002,
        -0.9999611377716064
      ],
      "type": "VEC3"
    },
    {
      "bufferView": 3,
      "byteOffset": 1048512,
      "componentType": 5126,
      "count": 43868,
      "max": [
        0.9996264576911926,
        0.9998174905776978,
        0.999703049659729,
        1.0
      ],
      "min": [
        -0.9999921321868896,
        -0.9998126029968262,
        -0.9998925924301147,
        1.0
      ],
      "type": "VEC4"
    },
    {
      "bufferView": 1,
      "byteOffset": 1048512,
      "componentType": 5126,
      "count": 43868,
      "max": [
        0.9750549793243408,
        0.9812323451042175
      ],
      "min": [
        0.0448344424366951,
        0.049507543444633484
      ],
      "type": "VEC2"
    },
    {
      "bufferView": 1,
      "byteOffset": 1399456,
      "componentType": 5126,
      "count": 43868,
      "max": [
        0.9750549793243408,
        0.9812323451042175
      ],
      "min": [
        0.0448344424366951,
        0.049507543444633484
      ],
      "type": "VEC2"
    },
    {
      "bufferView": 0,
      "byteOffset": 1459752,
      "componentType": 5125,
      "count": 248118,
      "type": "SCALAR"
    },
    {
      "bufferView": 2,
      "byteOffset": 2625600,
      "componentType": 5126,
      "count": 26384,
      "max": [
        140.6002960205078,
        196.0212860107422,
        53.563690185546875
      ],
      "min": [
        -141.07391357421875,
        -197.54420471191406,
        -53.30290603637695
      ],
      "type": "VEC3"
    },
    {
      "bufferView": 2,
      "byteOffset": 2942208,
      "componentType": 5126,
      "count": 26384,
      "max": [
        0.9998294115066528,
        0.9999784231185913,
        0.9999997615814209
      ],
      "min": [
        -0.9999535083770752,
        -0.9999405145645142,
        -1.0
      ],
      "type": "VEC3"
    },
    {
      "bufferView": 3,
      "byteOffset": 1750400,
      "componentType": 5126,
      "count": 26384,
      "max": [
        0.9999369978904724,
        0.9999789595603943,
        0.9999222755432129,
        1.0
      ],
      "min": [
        -0.9999881386756897,
        -0.9999979734420776,
        -0.9999514222145081,
        -1.0
      ],
      "type": "VEC4"
    },
    {
      "bufferView": 1,
      "byteOffset": 1750400,
      "componentType": 5126,
      "count": 26384,
      "max": [
        0.9787545204162598,
        0.9799999594688416
      ],
      "min": [
        0.019999999552965164,
        0.019999999552965164
      ],
      "type": "VEC2"
    },
    {
      "bufferView": 1,
      "byteOffset": 1961472,
      "componentType": 5126,
      "count": 26384,
      "max": [
        0.9787545204162598,
        0.9799999594688416
      ],
      "min": [
        0.019999999552965164,
        0.019999999552965164
      ],
      "type": "VEC2"
    },
    {
      "bufferView": 0,
      "byteOffset": 2452224,
      "componentType": 5125,
      "count": 149568,
      "type": "SCALAR"
    }
  ],
  "asset": {
    "extras": {
      "author": "antonia.sundberg (https://sketchfab.com/antonia.sundberg)",
      "license": "CC-BY-4.0 (http://creativecommons.org/licenses/by/4.0/)",
      "source": "https://sketchfab.com/3d-models/small-and-large-intestine-8a1ca8e3ca224cdeb9264674416bde38",
      "title": "Small and large intestine"
    },
    "generator": "Sketchfab-12.66.0",
    "version": "2.0"
  },
  "bufferViews": [
    {
      "buffer": 0,
      "byteLength": 3050496,
      "name": "floatBufferViews",
      "target": 34963
    },
    {
      "buffer": 0,
      "byteLength": 2172544,
      "byteOffset": 3050496,
      "byteStride": 8,
      "name": "floatBufferViews",
      "target": 34962
    },
    {
      "buffer": 0,
      "byteLength": 3258816,
      "byteOffset": 5223040,
      "byteStride": 12,
      "name": "floatBufferViews",
      "target": 34962
    },
    {
      "buffer": 0,
      "byteLength": 2172544,
      "byteOffset": 8481856,
      "byteStride": 16,
      "name": "floatBufferViews",
      "target": 34962
    }
  ],
  "buffers": [
    {
      "byteLength": 10654400,
      "uri": "scene.bin"
    }
  ],
  "images": [
    {
      "uri": "textures/Default_Material_baseColor.png"
    },
    {
      "uri": "textures/Default_Material_normal.png"
    },
    {
      "uri": "textures/Default_Material_0_baseColor.png"
    },
    {
      "uri": "textures/Default_Material_0_normal.png"
    }
  ],
  "materials": [
    {
      "doubleSided": true,
      "name": "Default_Material",
      "normalTexture": {
        "index": 1,
        "texCoord": 1
      },
      "pbrMetallicRoughness": {
        "baseColorTexture": {
          "index": 0
        },
        "metallicFactor": 0.0,
        "roughnessFactor": 0.6
      }
    },
    {
      "doubleSided": true,
      "name": "Default_Material_0",
      "normalTexture": {
        "index": 3
      },
      "pbrMetallicRoughness": {
        "baseColorTexture": {
          "index": 2
        },
        "metallicFactor": 0.0,
        "roughnessFactor": 0.6
      }
    }
  ],
  "meshes": [
    {
      "name": "Tjocktarm_Default Material_0",
      "primitives": [
        {
          "attributes": {
            "NORMAL": 1,
            "POSITION": 0,
            "TANGENT": 2,
            "TEXCOORD_0": 3,
            "TEXCOORD_1": 4
          },
          "indices": 5,
          "material": 0,
          "mode": 4
        }
      ]
    },
    {
      "name": "Tjocktarm_Default Material_0",
      "primitives": [
        {
          "attributes": {
            "NORMAL": 7,
            "POSITION": 6,
            "TANGENT": 8,
            "TEXCOORD_0": 9,
            "TEXCOORD_1": 10
          },
          "indices": 11,
          "material": 0,
          "mode": 4
        }
      ]
    },
    {
      "name": "Tunntarm_Default Material_0",
      "primitives": [
        {
          "attributes": {
            "NORMAL": 13,
            "POSITION": 12,
            "TANGENT": 14,
            "TEXCOORD_0": 15,
            "TEXCOORD_1": 16
          },
          "indices": 17,
          "material": 1,
          "mode": 4
        }
      ]
    }
  ],
  "nodes": [
    {
      "children": [
        1
      ],
      "matrix": [
        0.03703703731298447,
        -1.0491738386295464e-17,
        -3.494450857442643e-33,
        0.0,
        1.8072507420884507e-33,
        1.8715612704050743e-17,
        -0.03703703731298447,
        0.0,
        1.0491738386295464e-17,
        0.03703703731298447,
        1.8715612704050743e-17,
        0.0,
        -1.7763568394002505e-15,
        2.516341623959306e-07,
        1.890761547329645e-09,
        1.0
      ],
      "name": "Sketchfab_model"
    },
    {
      "children": [
        2
      ],
      "matrix": [
        1.0,
        0.0,
        0.0,
        0.0,
        0.0,
        0.0,
        1.0,
        0.0,
        0.0,
        -1.0,
        0.0,
        0.0,
        0.0,
        0.0,
        0.0,
        1.0
      ],
      "name": "Tarmpaket Sketchfab 1.FBX"
    },
    {
      "children": [
        3,
        6
      ],
      "name": "RootNode"
    },
    {
      "children": [
        4,
        5
      ],
      "matrix": [
        0.10000000149011612,
        0.0,
        0.0,
        0.0,
        0.0,
        0.10000000149011602,
        4.3711390048311405e-09,
        0.0,
        0.0,
        -4.3711390048311405e-09,
        0.10000000149011602,
        0.0,
        15.286341667175293,
        3.8266799449920654,
        -1.9965308904647827,
        1.0
      ],
      "name": "Tjocktarm"
    },
    {
      "mesh": 0,
      "name": "Tjocktarm_Default Material_0"
    },
    {
      "mesh": 1,
      "name": "Tjocktarm_Default Material_0"
    },
    {
      "children": [
        7
      ],
      "matrix": [
        0.10000000149011612,
        0.0,
        0.0,
        0.0,
        0.0,
        0.10000000149011602,
        4.3711390048311405e-09,
        0.0,
        0.0,
        -4.3711390048311405e-09,
        0.10000000149011602,
        0.0,
        14.165992736816406,
        10.696338653564453,
        1.168943166732788,
        1.0
      ],
      "name": "Tunntarm"
    },
    {
      "mesh": 2,
      "name": "Tunntarm_Default Material_0"
    }
  ],
  "samplers": [
    {
      "magFilter": 9729,
      "minFilter": 9987,
      "wrapS": 10497,
      "wrapT": 10497
    }
  ],
  "scene": 0,
  "scenes": [
    {
      "name": "Sketchfab_Scene",
      "nodes": [
        0
      ]
    }
  ],
  "textures": [
    {
      "sampler": 0,
      "source": 0
    },
    {
      "sampler": 0,
      "source": 1
    },
    {
      "sampler": 0,
      "source": 2
    },
    {
      "sampler": 0,
      "source": 3
    }
  ]
}
