{
  "accessors": [
    {
      "bufferView": 2,
      "componentType": 5126,
      "count": 65532,
      "max": [
        43.348670959472656,
        33.858428955078125,
        -25.91131019592285
      ],
      "min": [
        -43.348670959472656,
        -33.858428955078125,
        -73.71842193603516
      ],
      "type": "VEC3"
    },
    {
      "bufferView": 2,
      "byteOffset": 786384,
      "componentType": 5126,
      "count": 65532,
      "max": [
        0.9995037913322449,
        0.9999998807907104,
        0.9999243021011353
      ],
      "min": [
        -0.9998335242271423,
        -0.9999963641166687,
        -0.9999898672103882
      ],
      "type": "VEC3"
    },
    {
      "bufferView": 1,
      "componentType": 5126,
      "count": 65532,
      "max": [
        0.5056099891662598,
        0.9971799850463867
      ],
      "min": [
        0.0029100000392645597,
        0.44582998752593994
      ],
      "type": "VEC2"
    },
    {
      "bufferView": 0,
      "componentType": 5125,
      "count": 361563,
      "type": "SCALAR"
    },
    {
      "bufferView": 2,
      "byteOffset": 1572768,
      "componentType": 5126,
      "count": 4935,
      "max": [
        1.8505200147628784,
        23.26696014404297,
        -26.640409469604492
      ],
      "min": [
        -42.18825912475586,
        -29.5194091796875,
        -38.90296173095703
      ],
      "type": "VEC3"
    },
    {
      "bufferView": 2,
      "byteOffset": 1631988,
      "componentType": 5126,
      "count": 4935,
      "max": [
        0.9688726663589478,
        0.9578078389167786,
        0.9876015782356262
      ],
      "min": [
        -0.9754369258880615,
        -0.9941940307617188,
        -0.8141857385635376
      ],
      "type": "VEC3"
    },
    {
      "bufferView": 1,
      "byteOffset": 524256,
      "componentType": 5126,
      "count": 4935,
      "max": [
        0.12483000010251999,
        0.9283699989318848
      ],
      "min": [
        0.002739999908953905,
        0.44585999846458435
      ],
      "type": "VEC2"
    },
    {
      "bufferView": 0,
      "byteOffset": 1446252,
      "componentType": 5125,
      "count": 19053,
      "type": "SCALAR"
    }
  ],
  "asset": {
    "extras": {
      "author": "Errin Roy (https://sketchfab.com/errinroy)",
      "license": "CC-BY-4.0 (http://creativecommons.org/licenses/by/4.0/)",
      "source": "https://sketchfab.com/3d-models/liver-d0bce1a8e16a4b69b5b235e4248b2d19",
      "title": "Liver"
    },
    "generator": "Sketchfab-12.68.0",
    "version": "2.0"
  },
  "bufferViews": [
    {
      "buffer": 0,
      "byteLength": 1522464,
      "name": "floatBufferViews",
      "target": 34963
    },
    {
      "buffer": 0,
      "byteLength": 563736,
      "byteOffset": 1522464,
      "byteStride": 8,
      "name": "floatBufferViews",
      "target": 34962
    },
    {
      "buffer": 0,
      "byteLength": 1691208,
      "byteOffset": 2086200,
      "byteStride": 12,
      "name": "floatBufferViews",
      "target": 34962
    }
  ],
  "buffers": [
    {
      "byteLength": 3777408,
      "uri": "scene.bin"
    }
  ],
  "images": [
    {
      "uri": "textures/material0_baseColor.jpeg"
    }
  ],
  "materials": [
    {
      "doubleSided": true,
      "emissiveTexture": {
        "index": 0
      },
      "name": "material0",
      "pbrMetallicRoughness": {
        "baseColorTexture": {
          "index": 0
        },
        "metallicFactor": 0.0
      }
    }
  ],
  "meshes": [
    {
      "name": "Object_0",
      "primitives": [
        {
          "attributes": {
            "NORMAL": 1,
            "POSITION": 0,
            "TEXCOORD_0": 2
          },
          "indices": 3,
          "material": 0,
          "mode": 4
        }
      ]
    },
    {
      "name": "Object_1",
      "primitives": [
        {
          "attributes": {
            "NORMAL": 5,
            "POSITION": 4,
            "TEXCOORD_0": 6
          },
          "indices": 7,
          "material": 0,
          "mode": 4
        }
      ]
    }
  ],
  "nodes": [
    {
      "children": [
        1
      ],
      "matrix": [
        1.0,
        0.0,
        0.0,
        0.0,
        0.0,
        2.220446049250313e-16,
        -1.0,
        0.0,
        0.0,
        1.0,
        2.220446049250313e-16,
        0.0,
        0.0,
        0.0,
        0.0,
        1.0
      ],
      "name": "Sketchfab_model"
    },
    {
      "children": [
        2,
        3
      ],
      "name": "model_New Qlone_20190311_165626832.obj.cleaner.materialmerger.gles"
    },
    {
      "mesh": 0,
      "name": "Object_2"
    },
    {
      "mesh": 1,
      "name": "Object_3"
    }
  ],
  "samplers": [
    {
      "magFilter": 9729,
      "minFilter": 9987,
      "wrapS": 10497,
      "wrapT": 10497
    }
  ],
  "scene": 0,
  "scenes": [
    {
      "name": "Sketchfab_Scene",
      "nodes": [
        0
      ]
    }
  ],
  "textures": [
    {
      "sampler": 0,
      "source": 0
    }
  ]
}
